{
    "asset" : {
        "generator" : "Khronos glTF Blender I/O v3.2.43",
        "version" : "2.0"
    },
    "scene" : 0,
    "scenes" : [
        {
            "name" : "Scene",
            "nodes" : [
                0
            ]
        }
    ],
    "nodes" : [
        {
            "mesh" : 0,
            "name" : "Layer_1"
        }
    ],
    "materials" : [
        {
            "name" : "default",
            "pbrMetallicRoughness" : {
                "baseColorFactor" : [
                    0.5,
                    0.5,
                    0.5,
                    1
                ],
                "metallicFactor" : 0
            }
        }
    ],
    "meshes" : [
        {
            "name" : "Layer_1_1",
            "primitives" : [
                {
                    "attributes" : {
                        "POSITION" : 0,
                        "NORMAL" : 1
                    },
                    "indices" : 2,
                    "material" : 0
                }
            ]
        }
    ],
    "accessors" : [
        {
            "bufferView" : 0,
            "componentType" : 5126,
            "count" : 5725,
            "max" : [
                4.947420120239258,
                12.316207885742188,
                12.106420516967773
            ],
            "min" : [
                -12.513284683227539,
                -8.516544342041016,
                -11.363121032714844
            ],
            "type" : "VEC3"
        },
        {
            "bufferView" : 1,
            "componentType" : 5126,
            "count" : 5725,
            "type" : "VEC3"
        },
        {
            "bufferView" : 2,
            "componentType" : 5123,
            "count" : 34224,
            "type" : "SCALAR"
        }
    ],
    "bufferViews" : [
        {
            "buffer" : 0,
            "byteLength" : 68700,
            "byteOffset" : 0
        },
        {
            "buffer" : 0,
            "byteLength" : 68700,
            "byteOffset" : 68700
        },
        {
            "buffer" : 0,
            "byteLength" : 68448,
            "byteOffset" : 137400
        }
    ],
    "buffers" : [
        {
            "byteLength" : 205848,
            "uri" : "data:application/octet-stream;base64,"
        }
    ]
}
